<?xml version="1.0" standalone="no"?>
<!DOCTYPE svg PUBLIC "-//W3C//DTD SVG 20010904//EN"
 "http://www.w3.org/TR/2001/REC-SVG-20010904/DTD/svg10.dtd">
<svg version="1.0" xmlns="http://www.w3.org/2000/svg"
 width="900.000000pt" height="900.000000pt" viewBox="0 0 900.000000 900.000000"
 preserveAspectRatio="xMidYMid meet">
<metadata>
Created by potrace 1.16, written by Peter Selinger 2001-2019
</metadata>
<g transform="translate(0.000000,900.000000) scale(0.100000,-0.100000)"
fill="#000000" stroke="none">
<path d="M4143 7590 c-227 -35 -465 -110 -633 -202 -41 -22 -77 -42 -79 -44
-8 -7 33 -100 65 -150 19 -28 53 -69 76 -92 38 -39 45 -42 78 -35 113 23 210
-37 241 -149 18 -67 -15 -158 -71 -198 -38 -27 -38 -42 0 -74 72 -60 164 -56
226 9 40 43 47 69 23 91 -19 17 -25 59 -11 80 9 14 44 31 60 28 6 -1 16 -2 22
-3 5 0 16 -14 25 -31 14 -27 14 -33 0 -59 -14 -29 -14 -31 16 -60 73 -73 195
-58 249 31 29 48 26 63 -18 76 -45 14 -105 74 -121 121 -25 75 0 165 60 215
l29 25 0 220 0 221 -57 -1 c-32 0 -113 -9 -180 -19z"/>
<path d="M4590 7383 l0 -229 30 -29 c57 -54 68 -152 28 -230 -21 -40 -45 -60
-100 -85 -56 -24 -55 -43 3 -101 63 -63 151 -65 216 -5 31 28 34 35 24 54 -23
44 -6 81 46 96 34 11 77 -35 69 -72 -4 -15 -15 -34 -25 -43 -16 -13 -17 -19
-6 -45 7 -16 27 -42 44 -58 25 -24 42 -31 89 -34 68 -5 109 12 141 56 l20 28
-44 42 c-51 49 -69 96 -63 164 12 120 145 209 251 169 23 -9 31 -3 86 54 41
42 74 89 98 141 44 92 53 80 -122 164 -201 97 -464 167 -697 186 l-88 7 0
-230z"/>
<path d="M3189 7153 c-116 -120 -184 -227 -228 -363 -31 -94 -30 -95 31 -92
100 5 184 -73 194 -179 5 -45 1 -62 -20 -104 l-26 -50 23 -17 c85 -65 229 1
244 112 5 35 3 41 -19 49 -63 24 -44 121 23 121 43 0 64 -23 63 -69 -1 -37 2
-44 29 -57 89 -47 214 13 233 111 10 53 1 65 -47 65 -50 0 -118 36 -148 79
-11 15 -26 50 -33 77 -9 38 -27 64 -79 119 -67 70 -135 167 -159 224 -7 17
-15 31 -19 31 -4 0 -32 -26 -62 -57z"/>
<path d="M5690 7180 c-25 -61 -93 -156 -165 -230 -57 -59 -74 -83 -78 -114
-13 -86 -86 -150 -178 -159 -41 -4 -44 -6 -47 -35 -8 -78 71 -156 157 -156 28
0 59 8 79 19 28 17 31 23 26 50 -11 60 62 99 106 55 27 -27 25 -66 -5 -92 -31
-27 -32 -64 -5 -117 30 -59 78 -84 151 -79 36 3 66 11 75 20 15 14 14 18 -4
44 -12 16 -26 48 -32 72 -32 123 86 256 211 239 22 -3 39 -4 39 -3 0 1 -9 34
-20 74 -42 151 -129 286 -267 415 l-30 28 -13 -31z"/>
<path d="M4050 5685 l0 -105 28 0 c52 0 65 -20 67 -99 l2 -71 -353 0 -354 0 0
-105 0 -104 78 -3 77 -3 3 -117 3 -118 -81 0 -80 0 0 -95 0 -95 80 0 80 0 0
-105 0 -105 -80 0 -80 0 0 -115 0 -115 80 0 81 0 -3 -102 -3 -103 -77 -3 -78
-3 0 -94 0 -95 80 0 80 0 0 -110 0 -110 -80 0 -80 0 0 -95 0 -95 346 0 345 0
-3 -42 -3 -43 -47 -3 -48 -3 0 -110 0 -109 85 0 c93 0 140 16 181 62 42 45 54
83 54 168 l0 80 236 0 236 0 -7 -37 c-8 -46 -46 -89 -91 -103 -73 -24 -226 -8
-255 26 -23 28 -29 12 -29 -81 0 -93 0 -95 28 -109 74 -38 243 -48 333 -19 40
13 69 32 110 73 58 58 81 106 95 203 l6 47 158 0 157 0 39 29 c100 74 161 169
189 296 l17 75 69 0 69 0 0 85 0 85 -64 0 -65 0 -6 48 c-21 148 -61 250 -118
298 l-29 24 40 45 c58 66 80 120 97 238 l6 37 69 0 70 0 0 85 0 85 -64 0 -64
0 -6 45 c-25 162 -120 323 -230 385 -50 29 -55 30 -187 30 l-136 0 -12 74
c-30 185 -159 276 -376 264 -53 -3 -97 -12 -132 -28 l-53 -22 0 -96 c0 -90 1
-94 18 -80 29 26 82 38 163 38 129 0 189 -38 189 -120 l0 -30 -230 0 -230 0 0
83 c0 214 -65 297 -233 297 l-77 0 0 -105z m94 -501 c3 -8 5 -152 5 -320 l-1
-304 -189 0 -189 0 0 105 0 105 60 0 60 0 0 95 0 95 -60 0 -60 0 0 120 0 120
184 0 c158 0 185 -2 190 -16z m674 -266 c-3 -264 -4 -285 -24 -318 l-20 -35
-102 -3 -102 -3 0 41 0 40 -60 0 -60 0 0 -40 0 -40 -45 0 -45 0 0 320 0 320
231 0 230 0 -3 -282z m432 265 c75 -49 130 -134 130 -200 l0 -33 -70 0 -70 0
0 -85 0 -85 71 0 c68 0 70 -1 63 -22 -13 -42 -63 -135 -89 -167 l-27 -31 -139
0 c-76 0 -139 1 -139 3 0 1 7 20 15 42 11 31 14 102 15 318 l0 277 108 0 c83
0 113 -4 132 -17z m-1104 -1160 l-1 -308 -187 -3 -188 -2 0 112 0 113 60 -3
60 -4 0 96 0 96 -60 0 -60 0 0 105 0 105 188 0 189 0 -1 -307z m304 277 l0
-30 60 0 60 0 0 30 0 30 105 0 c148 0 139 20 143 -337 l3 -283 -230 0 -231 0
0 310 0 310 45 0 c43 0 45 -1 45 -30z m828 0 c50 -36 90 -102 98 -163 l7 -47
-74 0 -74 0 3 -85 3 -85 65 0 c37 0 64 -4 64 -10 0 -26 -73 -161 -97 -179 -23
-19 -40 -21 -144 -21 l-118 0 -4 288 c-2 158 -7 297 -11 310 l-8 22 124 0
c123 0 126 -1 166 -30z"/>
<path d="M950 5209 l0 -320 63 -62 c35 -34 177 -175 317 -314 l255 -252 0 635
0 634 -317 0 -318 0 0 -321z"/>
<path d="M2230 4572 l1 -958 320 -320 319 -319 -3 490 -3 490 -27 91 c-77 264
-72 626 13 904 18 58 20 94 20 323 l0 257 -320 0 -320 0 0 -958z"/>
<path d="M6093 5253 c3 -250 5 -285 25 -352 40 -137 55 -247 55 -421 0 -183
-10 -270 -54 -440 l-29 -115 2 -461 3 -461 313 307 312 307 0 956 0 957 -315
0 -316 0 4 -277z"/>
<path d="M7370 4898 l0 -631 78 74 c42 40 186 181 320 313 l242 240 0 318 0
318 -320 0 -320 0 0 -632z"/>
<path d="M3522 2698 l1 -373 314 -310 313 -310 -2 549 -3 548 -95 25 c-163 42
-366 131 -487 215 l-43 29 2 -373z"/>
<path d="M5385 3033 c-114 -77 -308 -160 -489 -208 -49 -14 -89 -26 -90 -27 0
-2 1 -243 4 -536 l5 -532 313 313 312 312 -2 356 -3 356 -50 -34z"/>
</g>
</svg>
